<?xml version="1.0" encoding="UTF-8" standalone="no"?>
<!-- Created with Inkscape (http://www.inkscape.org/) -->

<svg
   xmlns:dc="http://purl.org/dc/elements/1.1/"
   xmlns:cc="http://creativecommons.org/ns#"
   xmlns:rdf="http://www.w3.org/1999/02/22-rdf-syntax-ns#"
   xmlns:svg="http://www.w3.org/2000/svg"
   xmlns="http://www.w3.org/2000/svg"
   xmlns:xlink="http://www.w3.org/1999/xlink"
   xmlns:sodipodi="http://sodipodi.sourceforge.net/DTD/sodipodi-0.dtd"
   xmlns:inkscape="http://www.inkscape.org/namespaces/inkscape"
   width="210mm"
   height="297mm"
   viewBox="0 0 210 297"
   version="1.1"
   id="svg8"
   sodipodi:docname="Logo2.svg"
   inkscape:version="0.92.3 (2405546, 2018-03-11)">
  <defs
     id="defs2">
    <linearGradient
       inkscape:collect="always"
       id="linearGradient4596">
      <stop
         style="stop-color:#000000;stop-opacity:1;"
         offset="0"
         id="stop4592" />
      <stop
         style="stop-color:#000000;stop-opacity:0;"
         offset="1"
         id="stop4594" />
    </linearGradient>
    <radialGradient
       inkscape:collect="always"
       xlink:href="#linearGradient4596"
       id="radialGradient4598"
       cx="62.80834"
       cy="94.944237"
       fx="62.80834"
       fy="94.944237"
       r="26.459684"
       gradientTransform="matrix(1.2064859,0,0,0.7773113,126.06398,-40.77666)"
       gradientUnits="userSpaceOnUse" />
    <radialGradient
       inkscape:collect="always"
       xlink:href="#linearGradient4596"
       id="radialGradient4647"
       gradientUnits="userSpaceOnUse"
       gradientTransform="matrix(1.2064859,0,0,0.7773113,126.06398,-40.77666)"
       cx="62.80834"
       cy="94.944237"
       fx="62.80834"
       fy="94.944237"
       r="26.459684" />
  </defs>
  <sodipodi:namedview
     id="base"
     pagecolor="#ffffff"
     bordercolor="#666666"
     borderopacity="1.0"
     inkscape:pageopacity="0.0"
     inkscape:pageshadow="2"
     inkscape:zoom="0.62448793"
     inkscape:cx="396.85039"
     inkscape:cy="561.25984"
     inkscape:document-units="mm"
     inkscape:current-layer="layer1"
     showgrid="false"
     showguides="false"
     inkscape:window-width="1440"
     inkscape:window-height="900"
     inkscape:window-x="0"
     inkscape:window-y="0"
     inkscape:window-maximized="1" />
  <metadata
     id="metadata5">
    <rdf:RDF>
      <cc:Work
         rdf:about="">
        <dc:format>image/svg+xml</dc:format>
        <dc:type
           rdf:resource="http://purl.org/dc/dcmitype/StillImage" />
        <dc:title></dc:title>
      </cc:Work>
    </rdf:RDF>
  </metadata>
  <g
     inkscape:label="Capa 1"
     inkscape:groupmode="layer"
     id="layer1">
    <text
       xml:space="preserve"
       style="font-style:normal;font-weight:normal;font-size:10.58333302px;line-height:1.25;font-family:sans-serif;letter-spacing:0px;word-spacing:0px;fill:#000000;fill-opacity:1;stroke:none;stroke-width:0.26458332"
       x="-262.31549"
       y="120.10715"
       id="text3719"><tspan
         sodipodi:role="line"
         id="tspan3717"
         x="-262.31549"
         y="129.76265"
         style="stroke-width:0.26458332" /></text>
    <flowRoot
       xml:space="preserve"
       id="flowRoot3721"
       style="fill:black;fill-opacity:1;stroke:none;font-family:sans-serif;font-style:italic;font-weight:normal;font-size:74.66666667px;line-height:1.25;letter-spacing:0px;word-spacing:0px;-inkscape-font-specification:'sans-serif Italic';font-stretch:normal;font-variant:normal;"><flowRegion
         id="flowRegion3723"
         style="-inkscape-font-specification:'sans-serif Italic';font-family:sans-serif;font-weight:normal;font-style:italic;font-stretch:normal;font-variant:normal;font-size:74.66666667px;"><rect
           id="rect3725"
           width="197.14285"
           height="117.14286"
           x="-1028.5714"
           y="379.66254"
           style="-inkscape-font-specification:'sans-serif Italic';font-family:sans-serif;font-weight:normal;font-style:italic;font-stretch:normal;font-variant:normal;font-size:74.66666667px;" /></flowRegion><flowPara
         id="flowPara3727"></flowPara></flowRoot>    <flowRoot
       xml:space="preserve"
       id="flowRoot3729"
       style="fill:black;fill-opacity:1;stroke:none;font-family:sans-serif;font-style:normal;font-weight:normal;font-size:85.33333333px;line-height:1.25;letter-spacing:0px;word-spacing:0px"><flowRegion
         id="flowRegion3731"><rect
           id="rect3733"
           width="577.80725"
           height="371.73615"
           x="-1466.7415"
           y="665.93073" /></flowRegion><flowPara
         id="flowPara3735"></flowPara></flowRoot>    <path
       id="path3741"
       transform="scale(0.26458333)"
       style="stroke-width:0.99999994"
       d="m -1236.7285,782.67188 c -0.453,1.40996 -0.9188,2.85222 -1.0723,3.42382 -0.075,0.27861 0.2506,0.48133 0.459,0.72266 0.2152,-1.38035 0.4093,-2.76432 0.6133,-4.14648 z m -15.0547,12.97851 c -0.1571,0.60027 -0.3113,1.16033 -0.4707,1.80469 -0.1535,0.62075 1.7631,-1.26927 1.1738,-1.51758 -0.2421,-0.10202 -0.464,-0.18751 -0.7031,-0.28711 z m -3.7754,104.00391 c -0.014,9.4e-4 -0.027,0.001 -0.041,0.002 0.02,0.01 0.041,0.0217 0.061,0.0312 -0.01,-0.011 -0.013,-0.0222 -0.02,-0.0332 z m 202.6524,113.8359 c 0.9188,1.0377 1.8813,2.0591 2.8574,3.0762 1.3147,-0.1936 2.6239,-0.4116 3.9297,-0.6484 -4.4414,-1.8607 -2.726,0.2986 -4.4297,-2.0918 -0.88,-0.1348 -1.569,-0.2251 -2.3574,-0.336 z" />
    <rect
       style="fill:none;stroke-width:0.26458332"
       id="rect4600"
       width="2.6726952"
       height="1.6036172"
       x="74.300934"
       y="117.92941" />
    <rect
       style="fill:none;stroke-width:0.26458332"
       id="rect4602"
       width="10.156247"
       height="4.2763085"
       x="64.144684"
       y="113.65311" />
    <rect
       style="fill:none;stroke-width:0.26458332"
       id="rect4604"
       width="1.6036172"
       height="12.294398"
       x="45.435822"
       y="60.733734" />
    <g
       id="g4645"
       transform="matrix(5.533951,0,0,5.1060867,-108.64048,-122.82832)">
      <g
         id="g4630">
        <path
           sodipodi:type="spiral"
           style="fill:none;fill-rule:evenodd;stroke:#000000;stroke-width:0.26458332"
           id="path3775"
           sodipodi:cx="48.316967"
           sodipodi:cy="38.654919"
           sodipodi:expansion="1"
           sodipodi:revolution="3.3"
           sodipodi:radius="27.319075"
           sodipodi:argument="-20.200804"
           sodipodi:t0="0"
           d="m 48.316967,38.654919 c 0.271194,-1.215324 1.772029,-0.234034 2.019947,0.450742 0.671844,1.8557 -1.245261,3.440219 -2.921431,3.589152 -2.998274,0.266407 -5.187558,-2.596344 -5.158358,-5.39212 0.04285,-4.102914 3.959287,-6.968785 7.86281,-6.727564 5.202782,0.32151 8.763376,5.325592 8.296769,10.333499 -0.587179,6.301941 -6.693292,10.564664 -12.804189,9.865975 C 38.211401,49.928396 33.242728,42.712866 34.177336,35.499725 35.278739,26.999289 43.607975,21.322411 51.922902,22.49534 61.522815,23.849533 67.909345,33.295188 66.496493,42.711596 64.89112,53.411117 54.327221,60.508291 43.809548,58.854392 32.010309,56.998967 24.201784,45.315535 26.097546,33.696758 28.202202,20.797712 41.006109,12.277312 53.72587,14.415551 c 13.998923,2.35327 23.231598,16.278363 20.850412,30.099013 -0.482778,2.802093 -1.412792,5.523775 -2.739589,8.038351"
           transform="matrix(0.00369574,0.41362567,-0.57079311,0.0034213,60.827317,25.004437)" />
        <g
           id="g4607"
           transform="matrix(0.55449164,0,0,0.63575036,-67.294745,-23.89958)">
          <rect
             transform="matrix(0.92382936,0.38280453,0.13897687,0.99029563,0,0)"
             style="fill:url(#radialGradient4647);fill-opacity:1;stroke:#000000;stroke-width:0.28503206;stroke-opacity:1"
             y="12.457162"
             x="169.91815"
             height="41.134827"
             width="63.846466"
             id="rect3777" />
        </g>
        <text
           xml:space="preserve"
           style="font-style:normal;font-variant:normal;font-weight:normal;font-stretch:normal;font-size:8.46666622px;line-height:1.25;font-family:sans-serif;-inkscape-font-specification:'sans-serif, Normal';font-variant-ligatures:normal;font-variant-caps:normal;font-variant-numeric:normal;font-feature-settings:normal;text-align:start;letter-spacing:0px;word-spacing:0px;writing-mode:lr-tb;text-anchor:start;fill:#000000;fill-opacity:1;stroke:none;stroke-width:0.26458332"
           x="32.883926"
           y="48.291664"
           id="text4613"><tspan
             sodipodi:role="line"
             id="tspan4611"
             x="32.883926"
             y="48.291664"
             style="font-style:normal;font-variant:normal;font-weight:normal;font-stretch:normal;font-size:8.46666622px;font-family:sans-serif;-inkscape-font-specification:'sans-serif, Normal';font-variant-ligatures:normal;font-variant-caps:normal;font-variant-numeric:normal;font-feature-settings:normal;text-align:start;writing-mode:lr-tb;text-anchor:start;stroke-width:0.26458332">JNR</tspan></text>
      </g>
    </g>
    <flowRoot
       xml:space="preserve"
       id="flowRoot4615"
       style="fill:black;fill-opacity:1;stroke:none;font-family:sans-serif;font-style:normal;font-weight:normal;font-size:26.66666667px;line-height:1.25;letter-spacing:0px;word-spacing:0px"><flowRegion
         id="flowRegion4617"><rect
           id="rect4619"
           width="11.428572"
           height="67.14286"
           x="290"
           y="113.94826" /></flowRegion><flowPara
         id="flowPara4621"></flowPara></flowRoot>  </g>
</svg>
